<svg width="16" height="13" viewBox="0 0 16 13" fill="none" xmlns="http://www.w3.org/2000/svg">
<g id="flag-icons-in" clip-path="url(#clip0_54_4566)">
<path id="Vector" d="M-1 0H17V4.333H-1V0Z" fill="#FF9933"/>
<path id="Vector_2" d="M-1 4.32999H17V8.66332H-1V4.32999Z" fill="white"/>
<path id="Vector_3" d="M-1 8.66H17V12.9933H-1V8.66Z" fill="#128807"/>
<g id="Vector_4">
<path d="M7.99922 8.30001C8.99333 8.30001 9.79922 7.49412 9.79922 6.50001C9.79922 5.5059 8.99333 4.70001 7.99922 4.70001C7.00511 4.70001 6.19922 5.5059 6.19922 6.50001C6.19922 7.49412 7.00511 8.30001 7.99922 8.30001Z" fill="#000088"/>
<path d="M7.99922 8.07501C8.86907 8.07501 9.57422 7.36986 9.57422 6.50001C9.57422 5.63016 8.86907 4.92501 7.99922 4.92501C7.12937 4.92501 6.42422 5.63016 6.42422 6.50001C6.42422 7.36986 7.12937 8.07501 7.99922 8.07501Z" fill="white"/>
<path d="M7.99922 6.81501C8.17319 6.81501 8.31422 6.67398 8.31422 6.50001C8.31422 6.32604 8.17319 6.18501 7.99922 6.18501C7.82525 6.18501 7.68422 6.32604 7.68422 6.50001C7.68422 6.67398 7.82525 6.81501 7.99922 6.81501Z" fill="#000088"/>
<path d="M9.55014 6.78649C9.59449 6.79233 9.63518 6.7611 9.64102 6.71675C9.64686 6.6724 9.61564 6.63171 9.57129 6.62587C9.52694 6.62003 9.48625 6.65125 9.48041 6.69561C9.47457 6.73996 9.50579 6.78065 9.55014 6.78649Z" fill="#000088"/>
<path d="M7.99922 8.07501L8.05322 7.13001L7.99922 6.68001L7.94522 7.13001L7.99922 8.07501Z" fill="#000088"/>
<path d="M9.42315 7.17813C9.46448 7.19525 9.51186 7.17563 9.52898 7.1343C9.5461 7.09297 9.52648 7.04558 9.48515 7.02846C9.44382 7.01135 9.39643 7.03097 9.37931 7.0723C9.36219 7.11363 9.38182 7.16101 9.42315 7.17813Z" fill="#000088"/>
<path d="M7.59158 8.02135L7.88832 7.12252L7.95263 6.67388L7.784 7.09457L7.59158 8.02135Z" fill="#000088"/>
<path d="M9.19912 7.52357C9.23461 7.5508 9.28546 7.54411 9.31269 7.50862C9.33993 7.47312 9.33323 7.42228 9.29774 7.39504C9.26225 7.36781 9.2114 7.37451 9.18417 7.41C9.15694 7.44549 9.16363 7.49633 9.19912 7.52357Z" fill="#000088"/>
<path d="M7.21172 7.864L7.73098 7.07261L7.90922 6.6559L7.63745 7.01861L7.21172 7.864Z" fill="#000088"/>
<path d="M8.89332 7.79925C8.92055 7.83474 8.9714 7.84143 9.00689 7.8142C9.04238 7.78697 9.04908 7.73612 9.02184 7.70063C8.99461 7.66514 8.94376 7.65844 8.90827 7.68568C8.87278 7.71291 8.86609 7.76376 8.89332 7.79925Z" fill="#000088"/>
<path d="M6.88553 7.61371L7.59193 6.98367L7.87194 6.62729L7.51556 6.90731L6.88553 7.61371Z" fill="#000088"/>
<path d="M8.52659 7.98639C8.54371 8.02772 8.59109 8.04734 8.63242 8.03023C8.67375 8.01311 8.69338 7.96572 8.67626 7.92439C8.65914 7.88306 8.61175 7.86344 8.57042 7.88056C8.52909 7.89768 8.50947 7.94506 8.52659 7.98639Z" fill="#000088"/>
<path d="M6.63523 7.28751L7.48062 6.86178L7.84333 6.59001L7.42662 6.76825L6.63523 7.28751Z" fill="#000088"/>
<path d="M8.12392 8.07223C8.12975 8.11659 8.17044 8.14781 8.21479 8.14197C8.25915 8.13613 8.29037 8.09544 8.28453 8.05109C8.27869 8.00674 8.238 7.97552 8.19365 7.98135C8.1493 7.98719 8.11808 8.02788 8.12392 8.07223Z" fill="#000088"/>
<path d="M6.47789 6.90765L7.40466 6.71523L7.82535 6.5466L7.37671 6.61091L6.47789 6.90765Z" fill="#000088"/>
<path d="M7.71275 8.05094C7.70691 8.09529 7.73813 8.13598 7.78248 8.14182C7.82683 8.14765 7.86752 8.11643 7.87336 8.07208C7.8792 8.02773 7.84798 7.98704 7.80362 7.9812C7.75927 7.97536 7.71858 8.00658 7.71275 8.05094Z" fill="#000088"/>
<path d="M6.42422 6.50001L7.36922 6.55401L7.81922 6.50001L7.36922 6.44601L6.42422 6.50001Z" fill="#000088"/>
<path d="M7.3211 7.92394C7.30398 7.96527 7.3236 8.01266 7.36493 8.02978C7.40626 8.0469 7.45365 8.02727 7.47077 7.98594C7.48789 7.94461 7.46826 7.89723 7.42693 7.88011C7.3856 7.86299 7.33822 7.88261 7.3211 7.92394Z" fill="#000088"/>
<path d="M6.47789 6.09237L7.37671 6.38912L7.82535 6.45342L7.40466 6.2848L6.47789 6.09237Z" fill="#000088"/>
<path d="M6.97566 7.69991C6.94843 7.73541 6.95512 7.78625 6.99061 7.81349C7.02611 7.84072 7.07695 7.83402 7.10419 7.79853C7.13142 7.76304 7.12473 7.7122 7.08923 7.68496C7.05374 7.65773 7.0029 7.66442 6.97566 7.69991Z" fill="#000088"/>
<path d="M6.63523 5.71251L7.42662 6.23178L7.84333 6.41001L7.48062 6.13825L6.63523 5.71251Z" fill="#000088"/>
<path d="M6.69998 7.39411C6.66449 7.42135 6.6578 7.47219 6.68503 7.50768C6.71226 7.54317 6.76311 7.54987 6.7986 7.52264C6.83409 7.4954 6.84079 7.44456 6.81355 7.40907C6.78632 7.37357 6.73547 7.36688 6.69998 7.39411Z" fill="#000088"/>
<path d="M6.88553 5.38632L7.51556 6.09272L7.87194 6.37273L7.59193 6.01635L6.88553 5.38632Z" fill="#000088"/>
<path d="M6.51284 7.02738C6.47151 7.0445 6.45189 7.09188 6.46901 7.13321C6.48612 7.17454 6.53351 7.19417 6.57484 7.17705C6.61617 7.15993 6.63579 7.11255 6.61867 7.07122C6.60155 7.02989 6.55417 7.01026 6.51284 7.02738Z" fill="#000088"/>
<path d="M7.21172 5.13602L7.63745 5.98142L7.90922 6.34413L7.73098 5.92742L7.21172 5.13602Z" fill="#000088"/>
<path d="M6.427 6.62471C6.38264 6.63055 6.35142 6.67124 6.35726 6.71559C6.3631 6.75994 6.40379 6.79116 6.44814 6.78532C6.49249 6.77948 6.52372 6.73879 6.51788 6.69444C6.51204 6.65009 6.47135 6.61887 6.427 6.62471Z" fill="#000088"/>
<path d="M7.59158 4.97868L7.784 5.90545L7.95263 6.32615L7.88832 5.8775L7.59158 4.97868Z" fill="#000088"/>
<path d="M6.44829 6.21354C6.40394 6.2077 6.36325 6.23892 6.35741 6.28327C6.35158 6.32763 6.3828 6.36831 6.42715 6.37415C6.4715 6.37999 6.51219 6.34877 6.51803 6.30442C6.52387 6.26007 6.49265 6.21938 6.44829 6.21354Z" fill="#000088"/>
<path d="M7.99922 4.92501L7.94522 5.87001L7.99922 6.32001L8.05322 5.87001L7.99922 4.92501Z" fill="#000088"/>
<path d="M6.57529 5.82189C6.53396 5.80477 6.48657 5.8244 6.46945 5.86573C6.45233 5.90706 6.47196 5.95444 6.51329 5.97156C6.55462 5.98868 6.602 5.96905 6.61912 5.92772C6.63624 5.88639 6.61662 5.83901 6.57529 5.82189Z" fill="#000088"/>
<path d="M8.40686 4.97868L8.11011 5.8775L8.04581 6.32615L8.21443 5.90546L8.40686 4.97868Z" fill="#000088"/>
<path d="M6.79932 5.47646C6.76382 5.44922 6.71298 5.45592 6.68574 5.49141C6.65851 5.5269 6.66521 5.57775 6.7007 5.60498C6.73619 5.63221 6.78703 5.62552 6.81427 5.59003C6.8415 5.55454 6.83481 5.50369 6.79932 5.47646Z" fill="#000088"/>
<path d="M8.78672 5.13602L8.26745 5.92742L8.08922 6.34413L8.36098 5.98142L8.78672 5.13602Z" fill="#000088"/>
<path d="M7.10512 5.20078C7.07788 5.16529 7.02704 5.15859 6.99155 5.18582C6.95606 5.21306 6.94936 5.2639 6.97659 5.2994C7.00383 5.33489 7.05467 5.34158 7.09017 5.31435C7.12566 5.28711 7.13235 5.23627 7.10512 5.20078Z" fill="#000088"/>
<path d="M9.11291 5.38632L8.40651 6.01635L8.1265 6.37273L8.48288 6.09272L9.11291 5.38632Z" fill="#000088"/>
<path d="M7.47185 5.01364C7.45473 4.97231 7.40735 4.95268 7.36602 4.9698C7.32469 4.98692 7.30506 5.0343 7.32218 5.07563C7.3393 5.11696 7.38668 5.13659 7.42801 5.11947C7.46934 5.10235 7.48897 5.05497 7.47185 5.01364Z" fill="#000088"/>
<path d="M9.36321 5.71251L8.51781 6.13825L8.1551 6.41001L8.57181 6.23178L9.36321 5.71251Z" fill="#000088"/>
<path d="M7.87452 4.92779C7.86868 4.88344 7.828 4.85222 7.78364 4.85806C7.73929 4.86389 7.70807 4.90458 7.71391 4.94894C7.71975 4.99329 7.76044 5.02451 7.80479 5.01867C7.84914 5.01283 7.88036 4.97214 7.87452 4.92779Z" fill="#000088"/>
<path d="M9.52055 6.09237L8.59378 6.2848L8.17309 6.45342L8.62173 6.38912L9.52055 6.09237Z" fill="#000088"/>
<path d="M8.28569 4.94909C8.29153 4.90474 8.26031 4.86405 8.21596 4.85821C8.17161 4.85237 8.13092 4.88359 8.12508 4.92794C8.11924 4.9723 8.15046 5.01298 8.19481 5.01882C8.23917 5.02466 8.27985 4.99344 8.28569 4.94909Z" fill="#000088"/>
<path d="M9.57422 6.50001L8.62922 6.44601L8.17922 6.50001L8.62922 6.55401L9.57422 6.50001Z" fill="#000088"/>
<path d="M8.67734 5.07608C8.69446 5.03475 8.67483 4.98737 8.6335 4.97025C8.59217 4.95313 8.54479 4.97276 8.52767 5.01409C8.51055 5.05541 8.53018 5.1028 8.57151 5.11992C8.61284 5.13704 8.66022 5.11741 8.67734 5.07608Z" fill="#000088"/>
<path d="M9.52055 6.90765L8.62173 6.61091L8.17309 6.5466L8.59378 6.71523L9.52055 6.90765Z" fill="#000088"/>
<path d="M9.02277 5.30011C9.05001 5.26462 9.04331 5.21377 9.00782 5.18654C8.97233 5.1593 8.92148 5.166 8.89425 5.20149C8.86702 5.23698 8.87371 5.28783 8.9092 5.31506C8.94469 5.34229 8.99554 5.3356 9.02277 5.30011Z" fill="#000088"/>
<path d="M9.36321 7.28751L8.57182 6.76825L8.1551 6.59001L8.51781 6.86178L9.36321 7.28751Z" fill="#000088"/>
<path d="M9.29846 5.60591C9.33395 5.57868 9.34064 5.52783 9.31341 5.49234C9.28617 5.45685 9.23533 5.45015 9.19984 5.47739C9.16435 5.50462 9.15765 5.55547 9.18488 5.59096C9.21212 5.62645 9.26296 5.63314 9.29846 5.60591Z" fill="#000088"/>
<path d="M9.11291 7.6137L8.48288 6.90731L8.1265 6.62729L8.40651 6.98367L9.11291 7.6137Z" fill="#000088"/>
<path d="M9.4856 5.97264C9.52693 5.95552 9.54655 5.90814 9.52943 5.86681C9.51231 5.82548 9.46493 5.80586 9.4236 5.82298C9.38227 5.84009 9.36264 5.88748 9.37976 5.92881C9.39688 5.97014 9.44427 5.98976 9.4856 5.97264Z" fill="#000088"/>
<path d="M8.78672 7.864L8.36098 7.01861L8.08922 6.6559L8.26745 7.07261L8.78672 7.864Z" fill="#000088"/>
<path d="M9.57144 6.37532C9.61579 6.36948 9.64701 6.32879 9.64118 6.28444C9.63534 6.24008 9.59465 6.20886 9.5503 6.2147C9.50594 6.22054 9.47472 6.26123 9.48056 6.30558C9.4864 6.34993 9.52709 6.38115 9.57144 6.37532Z" fill="#000088"/>
<path d="M8.40686 8.02134L8.21444 7.09457L8.04581 6.67388L8.11012 7.12252L8.40686 8.02134Z" fill="#000088"/>
</g>
</g>
<defs>
<clipPath id="clip0_54_4566">
<rect width="18" height="13" fill="white" transform="translate(-1)"/>
</clipPath>
</defs>
</svg>
