<svg width="107" height="45" viewBox="0 0 107 45" fill="none" xmlns="http://www.w3.org/2000/svg">
<g id="The Good Platform logo" clip-path="url(#clip0_1_8156)">
<g id="Inner Wrapper">
<g id="platform">
<path d="M103.716 38.9019V40.7248H103.48V38.9019H103.716ZM104.299 38.9019V39.0997H102.899V38.9019H104.299Z" fill="#070D13"/>
<path d="M104.644 38.9019H104.877L105.471 40.388L106.063 38.9019H106.297L105.56 40.7248H105.379L104.644 38.9019ZM104.568 38.9019H104.773L104.807 40.0137V40.7248H104.568V38.9019ZM106.167 38.9019H106.372V40.7248H106.133V40.0137L106.167 38.9019Z" fill="#070D13"/>
<path d="M32.263 26.8422C32.3631 26.8876 32.4435 26.9113 32.5317 26.9133C32.618 26.9152 32.6867 26.9073 32.7534 26.8876C32.8338 26.8639 32.8887 26.8344 32.926 26.8067C32.9828 26.7673 33.0338 26.718 33.0632 26.6864C33.0848 26.6628 33.124 26.6036 33.1535 26.5523C33.179 26.5069 33.2025 26.434 33.2104 26.3925C33.2221 26.3334 33.226 26.2604 33.2221 26.219C33.3574 26.219 33.6379 26.219 33.8537 26.219H35.6424C35.7757 26.219 35.813 26.213 35.9209 26.2367C36.0464 26.2643 36.166 26.3432 36.2464 26.428C36.3249 26.5089 36.3798 26.6174 36.4112 26.7377C36.4308 26.8146 36.4269 26.9705 36.4269 27.1105L36.4249 40.2605C36.4249 40.3887 36.4308 40.4716 36.3818 40.5958C36.3367 40.7063 36.2798 40.7871 36.2151 40.8463C36.1307 40.9252 36.0523 40.9647 35.9424 41.0021C35.8346 41.0376 35.6012 41.0278 35.507 41.0278H32.8867C32.6474 41.0278 32.4925 40.943 32.3631 40.8009C32.212 40.6333 32.1964 40.4439 32.1964 40.4439C31.9375 40.5485 31.7472 40.6294 31.4628 40.7122C31.2785 40.7654 31.1588 40.8108 30.8607 40.868C30.5861 40.9213 30.4018 40.9607 30.0625 40.9923C29.7898 41.0179 29.6447 41.0258 29.3034 41.0258C28.309 41.0258 27.2009 40.8128 26.1948 40.3276C25.5161 40.0002 24.5963 39.3907 24.0432 38.7812C23.4411 38.1165 22.8703 37.3591 22.5271 36.4636C22.1937 35.5977 21.9603 34.7437 21.9681 33.6253C21.974 32.5898 22.1623 31.6411 22.5408 30.7555C22.8998 29.9172 23.443 29.073 24.0412 28.4754C24.7532 27.7634 25.3416 27.3551 25.9829 27.0296C26.8773 26.576 28.0364 26.2249 29.1034 26.2249C29.4839 26.2249 29.6212 26.2229 29.9742 26.2525C30.5998 26.3038 31.1117 26.432 31.4256 26.5306C31.8688 26.6667 32.0532 26.7476 32.263 26.8422ZM26.2595 34.9922C26.4144 35.4281 26.636 35.8108 26.9244 36.1402C27.2127 36.4696 27.5579 36.7319 27.9639 36.9232C28.3679 37.1145 28.817 37.2112 29.3093 37.2112C29.8153 37.2112 30.288 37.1145 30.7234 36.9232C31.1588 36.7319 31.5374 36.4715 31.859 36.1402C32.1807 35.8108 32.4317 35.4281 32.6141 34.9922C32.7965 34.5563 32.8867 34.0987 32.8867 33.6194V33.4616C32.8632 32.9883 32.7553 32.5464 32.5631 32.1342C32.3709 31.722 32.114 31.363 31.7962 31.0592C31.4785 30.7555 31.1059 30.5168 30.6783 30.3452C30.2507 30.1717 29.7938 30.0869 29.3113 30.0869C28.819 30.0869 28.3718 30.1796 27.9658 30.363C27.5618 30.5464 27.2146 30.7969 26.9263 31.1125C26.638 31.4281 26.4164 31.8009 26.2614 32.2328C26.1065 32.6648 26.028 33.1283 26.028 33.6234C26.028 34.1007 26.1045 34.5583 26.2595 34.9922Z" fill="#070D13"/>
<path d="M16.5373 23.718C16.5373 23.5326 16.5667 23.4182 16.653 23.2939C16.755 23.1479 16.8864 23.0493 17.0708 23.0158C17.6768 22.8994 18.2632 22.86 18.5967 22.86C18.9379 22.86 19.5381 22.9211 19.5381 22.9211C19.6597 22.9329 20.1324 23.0059 20.252 23.0611C20.3324 23.0986 20.3932 23.14 20.4619 23.213C20.5305 23.286 20.5776 23.3708 20.609 23.4635C20.6403 23.5582 20.6403 23.6134 20.6403 23.7318V40.3729C20.6403 40.5011 20.5893 40.6885 20.452 40.8246C20.3265 40.9489 20.1696 41.0278 19.9833 41.0278H17.1963C17.0335 41.0278 16.8962 40.9647 16.804 40.8937C16.7432 40.8483 16.6922 40.7871 16.6805 40.7714C16.6216 40.6984 16.5392 40.5505 16.5392 40.3729C16.5392 40.2881 16.5392 40.2862 16.5392 40.1816L16.5373 23.718Z" fill="#070D13"/>
<path d="M70.2947 27.1263C70.2947 26.9783 70.2947 26.7929 70.3202 26.7042C70.3555 26.5878 70.4202 26.4754 70.5026 26.4004C70.583 26.3274 70.7046 26.2505 70.8204 26.2328C70.9322 26.217 71.0969 26.219 71.2048 26.219H72.8719C72.9837 26.219 73.3956 26.217 73.4956 26.217C73.4877 26.2762 73.5132 26.4162 73.5368 26.4813C73.5819 26.6056 73.6584 26.6983 73.7407 26.7653C73.8506 26.8561 74.0271 26.9133 74.133 26.9113C74.286 26.9093 74.3644 26.8837 74.4762 26.8304C74.6704 26.7357 74.7234 26.6608 74.9783 26.4793C75.0568 26.4241 75.4157 26.1914 75.5922 26.1144C75.8982 25.9783 76.2787 25.8343 76.6023 25.7594C76.9004 25.6904 77.4123 25.6391 77.8046 25.6568C78.291 25.6785 78.7735 25.787 79.1736 25.9369C79.4854 26.0533 79.711 26.1736 79.964 26.3235C80.1856 26.4537 80.37 26.5957 80.5877 26.787C80.7799 26.9547 80.7916 26.9783 80.927 27.1282C81.0858 27.3058 81.2467 27.5661 81.3526 27.789C81.4467 27.9882 81.5762 28.3926 81.6036 28.7693C81.6272 29.0888 81.5899 29.3926 81.5487 29.574C81.535 29.6391 81.482 29.864 81.3957 30.0652C81.3173 30.2506 81.2173 30.4202 81.1682 30.5011C81.0976 30.6194 80.8662 30.9015 80.774 30.9902C80.672 31.0869 80.3739 31.3571 80.1032 31.4833C79.9659 31.5464 79.7875 31.6312 79.5952 31.6904C79.2069 31.8127 78.7401 31.8285 78.3949 31.7772C78.1321 31.7378 77.9223 31.6707 77.8399 31.6372C77.8516 31.4182 77.836 31.2703 77.7791 31.0474C77.7536 30.931 77.683 30.7831 77.6555 30.7299C77.5653 30.5484 77.4084 30.3373 77.2672 30.221C77.0279 30.0218 76.8886 29.9389 76.5827 29.8383C76.2963 29.7437 75.908 29.7634 75.6824 29.8245C75.4471 29.8876 75.2353 29.9843 75.0332 30.1441C74.8273 30.3078 74.6292 30.5326 74.4998 30.8383C74.4037 31.0652 74.3605 31.3452 74.3605 31.5149V40.3335C74.3605 40.4084 74.3546 40.4992 74.3213 40.586C74.2919 40.6589 74.2526 40.7339 74.1938 40.799C74.1644 40.8305 74.082 40.9134 73.9859 40.9607C73.8918 41.0061 73.7819 41.0278 73.7133 41.0278C73.6623 41.0278 73.7388 41.0278 73.3877 41.0278H71.0596C70.7184 41.0278 70.5909 40.943 70.481 40.8305C70.3614 40.7102 70.281 40.5564 70.2849 40.2881V27.1263H70.2947Z" fill="#070D13"/>
<path d="M5.65595 26.5286C5.96976 26.432 6.48166 26.3018 7.10731 26.2505C7.46035 26.2209 7.58587 26.215 7.96637 26.2229C8.3704 26.2308 8.99801 26.2998 9.57856 26.4517C10.1238 26.5957 10.6651 26.8048 11.0966 27.0277C11.7144 27.3472 12.3264 27.7614 13.0383 28.4734C13.6345 29.0711 14.1798 29.9153 14.5387 30.7535C14.9172 31.6391 15.1055 32.5879 15.1114 33.6234C15.1193 34.7417 14.8859 35.5958 14.5524 36.4617C14.2072 37.3571 13.6385 38.1126 13.0363 38.7792C12.4833 39.3887 11.5634 39.9982 10.8848 40.3256C9.87864 40.8108 8.7705 41.0238 7.77612 41.0238C7.43485 41.0238 7.28972 41.014 7.01709 40.9903C6.67779 40.9587 6.49343 40.9193 6.21884 40.866C5.91876 40.8088 5.80108 40.7635 5.61672 40.7102C5.33233 40.6274 5.14209 40.5485 4.88319 40.442V44.2231C4.88319 44.4755 4.8675 44.5623 4.74198 44.7398C4.63215 44.8957 4.41248 44.9982 4.1732 44.9982H1.54897C1.45483 44.9982 1.22143 45.0101 1.11356 44.9726C1.00177 44.9351 0.925276 44.8957 0.84094 44.8168C0.776217 44.7576 0.717377 44.6767 0.674229 44.5663C0.625196 44.444 0.63108 44.3592 0.63108 44.231V27.1066C0.633041 26.9665 0.63108 26.8107 0.650693 26.7338C0.682074 26.6115 0.742874 26.501 0.821327 26.4221C0.903701 26.3393 1.00961 26.2702 1.14298 26.2367C1.24497 26.2111 1.37638 26.217 1.50975 26.217H3.22785C3.44163 26.217 3.50243 26.217 3.58089 26.217C3.61815 26.217 3.73387 26.217 3.82997 26.217C3.82997 26.2426 3.82801 26.3077 3.8437 26.3866C3.86135 26.4635 3.89077 26.5326 3.91431 26.574C3.95353 26.645 4.02218 26.72 4.08102 26.7673C4.10652 26.789 4.1379 26.8166 4.22812 26.858C4.31245 26.8975 4.40071 26.9152 4.47916 26.9152C4.61057 26.9152 4.70471 26.8817 4.81455 26.8324C4.98714 26.7574 5.27349 26.645 5.65595 26.5286ZM11.0515 33.6194C11.0515 33.1244 10.9731 32.6608 10.8181 32.2289C10.6632 31.7969 10.4415 31.4241 10.1532 31.1086C9.86491 30.793 9.51972 30.5444 9.11373 30.359C8.7097 30.1756 8.26056 30.0829 7.76828 30.0829C7.28383 30.0829 6.82881 30.1697 6.40124 30.3413C5.97368 30.5129 5.60103 30.7516 5.2833 31.0553C4.96557 31.3591 4.7106 31.718 4.51643 32.1303C4.32422 32.5425 4.21635 32.9863 4.19281 33.4577V33.6155C4.19281 34.0948 4.28303 34.5543 4.46543 34.9883C4.64784 35.4242 4.89888 35.8068 5.22054 36.1362C5.54219 36.4656 5.92072 36.7279 6.35613 36.9193C6.79154 37.1106 7.26226 37.2072 7.77024 37.2072C8.26252 37.2072 8.7097 37.1106 9.11569 36.9193C9.51972 36.7279 9.86687 36.4676 10.1552 36.1362C10.4435 35.8068 10.6651 35.4242 10.8201 34.9883C10.975 34.5563 11.0515 34.0987 11.0515 33.6194Z" fill="#070D13"/>
<path d="M83.2688 26.3176C83.3551 26.2624 83.4629 26.219 83.6375 26.219C83.7395 26.219 83.7316 26.2209 83.8238 26.2209L85.4301 26.219C85.5596 26.219 85.5459 26.219 85.6459 26.219C85.7969 26.219 86.0538 26.219 86.1519 26.219C86.1519 26.4044 86.197 26.501 86.2245 26.5562C86.2715 26.649 86.3912 26.7752 86.4716 26.8206C86.5343 26.8541 86.6324 26.9073 86.7775 26.9113C86.8619 26.9133 87.0011 26.8916 87.0953 26.8344C87.2483 26.7417 87.3973 26.6667 87.5052 26.6194C87.7661 26.505 87.9132 26.4576 88.021 26.4221C88.1034 26.3965 88.3231 26.3353 88.4898 26.3038C88.5172 26.2979 88.8958 26.2229 89.2821 26.219C89.6626 26.215 89.8941 26.2407 90.2432 26.3038C90.4923 26.3491 90.6609 26.4004 90.9708 26.5109C91.3023 26.6273 91.6769 26.8363 91.9632 27.0336C92.1555 27.1657 92.4398 27.4103 92.6007 27.5681C92.8341 27.8008 93.0537 28.0809 93.244 28.3827C93.5009 27.931 94.0246 27.4004 94.3541 27.1539C94.6993 26.8935 95.1837 26.6273 95.5407 26.4991C95.9741 26.3432 96.5056 26.219 97.0234 26.219C97.2823 26.219 97.4902 26.2288 97.7197 26.2604C98.2178 26.3255 98.6552 26.4635 99.0867 26.6726C99.7183 26.9783 100.299 27.4557 100.728 28.0198C100.932 28.286 101.179 28.6963 101.358 29.1519C101.544 29.6273 101.664 30.2979 101.664 30.7062C101.664 31.4932 101.664 31.7417 101.664 32.6214V40.2487C101.664 40.5307 101.621 40.6491 101.509 40.7852C101.395 40.9252 101.228 41.0258 100.97 41.0258H98.5395C98.2296 41.0258 98.0668 40.8937 97.9805 40.7871C97.8805 40.6629 97.8256 40.5426 97.8256 40.3276L97.8276 33.3591C97.8276 33.0297 97.8276 31.793 97.8276 31.4458C97.8276 31.1243 97.7766 30.9942 97.6805 30.7516C97.5706 30.4734 97.3431 30.2052 97.2097 30.1086C96.9842 29.9468 96.6763 29.6983 96.0428 29.6983C95.7584 29.6983 95.2916 29.7969 94.8934 30.1815C94.6953 30.3729 94.356 30.8127 94.356 31.432C94.356 31.7752 94.3541 32.2742 94.3541 32.6194V40.2487C94.3541 40.515 94.3227 40.6195 94.2148 40.7655C94.1011 40.9173 93.9344 41.0258 93.6755 41.0258H91.2081C90.9767 41.0258 90.8335 40.9331 90.7198 40.8207C90.6198 40.7201 90.5335 40.5603 90.5335 40.296C90.5335 40.296 90.5354 31.6115 90.5354 31.505C90.5354 31.2959 90.5158 31.0908 90.453 30.9133C90.3981 30.7594 90.3138 30.5425 90.1039 30.2979C89.9627 30.1342 89.8568 30.0573 89.7254 29.9685C89.6705 29.931 89.5155 29.8482 89.39 29.8028C89.1998 29.7358 89.0076 29.7042 88.8742 29.7003C88.6388 29.6924 88.4878 29.716 88.327 29.7634C88.2074 29.7969 88.0759 29.8482 87.9347 29.9291C87.77 30.0237 87.6327 30.1421 87.5091 30.2742C87.4287 30.3571 87.3051 30.5287 87.211 30.7259C87.1071 30.9448 87.058 31.2368 87.058 31.4557C87.058 31.7851 87.058 32.2348 87.058 32.58V40.1875C87.058 40.3177 87.0757 40.4301 87.0306 40.5603C86.9835 40.6905 86.9482 40.7457 86.8795 40.8207C86.807 40.8996 86.7246 40.943 86.6481 40.9824C86.5697 41.0219 86.4657 41.0298 86.3578 41.0298H83.6081C83.3668 41.0298 83.155 40.8779 83.0687 40.7339C83.0079 40.6294 82.9569 40.5643 82.9569 40.296V27.073C82.9569 27.004 82.955 26.9764 82.955 26.8837C82.955 26.7712 83.006 26.6253 83.0413 26.5661C83.104 26.4458 83.1766 26.3787 83.2688 26.3176Z" fill="#070D13"/>
<path d="M54.2473 33.6155C54.2473 32.9251 54.3336 32.2861 54.5101 31.649C54.6847 31.0119 54.9259 30.4379 55.2437 29.8936C55.5614 29.3492 55.9321 28.8541 56.3773 28.4064C56.75 28.0316 57.2148 27.6273 57.8522 27.2466C58.3916 26.9231 58.9937 26.6706 59.5958 26.4912C60.194 26.3136 60.8981 26.215 61.5846 26.215C62.5986 26.215 63.5674 26.4123 64.4598 26.791C65.3522 27.1697 66.1289 27.6983 66.7879 28.363C67.4489 29.0277 67.9863 29.8087 68.3707 30.7042C68.7551 31.6017 68.961 32.5721 68.961 33.6155C68.961 34.3058 68.8512 35.0297 68.6747 35.6648C68.5001 36.2999 68.2432 36.8561 67.9255 37.4025C67.6077 37.9508 67.2135 38.438 66.7703 38.8857C66.327 39.3315 65.8328 39.7043 65.2895 40.0219C64.7442 40.3414 64.148 40.5899 63.5263 40.7615C62.9026 40.9331 62.2514 41.0179 61.5728 41.0179C60.8863 41.0179 60.2313 40.9134 59.6017 40.7398C58.9701 40.5682 58.3974 40.3039 57.8522 39.9844C57.307 39.6648 56.8264 39.2783 56.3832 38.8305C55.9399 38.3848 55.5634 37.8897 55.2456 37.3414C54.9279 36.793 54.6886 36.2329 54.5141 35.5997C54.3395 34.9666 54.2473 34.3058 54.2473 33.6155ZM58.3621 33.6411C58.3621 34.1362 58.4386 34.5997 58.5916 35.0317C58.7446 35.4636 58.9603 35.8364 59.2408 36.152C59.5213 36.4676 59.8606 36.7161 60.2587 36.9015C60.6569 37.0849 61.108 37.1776 61.6081 37.1776C62.0925 37.1776 62.5319 37.0849 62.9241 36.9015C63.2615 36.7437 63.7028 36.4045 63.9205 36.152C64.1931 35.8364 64.401 35.4636 64.5481 35.0317C64.6932 34.5997 64.7658 34.1362 64.7658 33.6411C64.7658 33.1618 64.6932 32.7023 64.5481 32.2683C64.403 31.8324 64.1931 31.4498 63.9205 31.1204C63.6479 30.791 63.3164 30.5287 62.9241 30.3373C62.5319 30.146 62.0945 30.0494 61.6081 30.0494C61.108 30.0494 60.6588 30.146 60.2587 30.3373C59.8586 30.5287 59.5193 30.789 59.2408 31.1204C58.9603 31.4498 58.7446 31.8324 58.5916 32.2683C58.4386 32.7042 58.3621 33.1618 58.3621 33.6411Z" fill="#070D13"/>
<path d="M53.402 27.2387C53.2549 27.1204 53.1157 27.0612 52.9509 27.0612L50.5738 27.0533L50.5718 25.6095C50.5718 25.428 50.5973 25.2801 50.6503 25.1499C50.7052 25.0178 50.8072 24.8639 50.9151 24.7692C51.0229 24.6746 51.1112 24.6134 51.2465 24.5582C51.3838 24.503 51.5054 24.4813 51.6564 24.4813H52.0565C52.286 24.4813 52.5175 24.3452 52.6253 24.146C52.6724 24.0592 52.7097 23.9685 52.7097 23.7692C52.7097 23.6608 52.7097 23.6095 52.7097 23.4675V21.2012C52.4861 21.1144 52.2252 21.0355 51.8741 20.9684C51.6172 20.9211 51.3171 20.8954 50.9837 20.8954C50.768 20.8954 50.5091 20.9171 50.2149 20.9724C49.9148 21.0276 49.55 21.14 49.346 21.2288C49.2127 21.282 49.1205 21.3195 48.9361 21.4221C48.6792 21.5621 48.4026 21.7357 48.1065 21.9882C47.8947 22.1676 47.7005 22.3708 47.524 22.5897C47.2906 22.8777 47.0905 23.1972 46.9336 23.5385C46.661 24.1302 46.51 24.7752 46.51 25.4497C46.51 25.4497 46.51 26.2525 46.51 26.3827C46.51 26.5484 46.4315 26.7357 46.3276 26.8403C46.2648 26.9034 46.1001 27.0513 45.8274 27.0513C45.6117 27.0513 45.4352 26.9251 45.3489 26.8284C45.2292 26.6943 45.1822 26.5306 45.1822 26.3827C45.1841 25.787 45.1841 23.6667 45.1841 23.6667C45.1841 23.4142 45.1822 22.9704 45.1822 22.7909C45.1822 22.7495 45.1704 22.6765 45.1567 22.6252C45.1449 22.5819 45.1116 22.5108 45.1037 22.4951C45.0919 22.4714 45.0488 22.4083 45.0213 22.3747C44.9919 22.3412 44.9507 22.3018 44.8919 22.2604C44.7899 22.1854 44.6487 22.1558 44.6153 22.1519C44.4565 22.1321 44.3604 22.1637 44.2211 22.2209C44.0093 22.3097 43.7386 22.4063 43.3836 22.572C43.1424 22.6844 42.8149 22.854 42.6658 22.9487C42.3657 23.14 42.0676 23.3412 41.8264 23.5404C41.6302 23.7022 41.5008 23.8205 41.3341 23.9823C41.2949 24.0197 41.2341 24.0789 41.185 24.1617C41.1536 24.2111 41.1203 24.3018 41.1066 24.3905C41.1007 24.428 41.0987 24.4694 41.0987 24.57C41.0948 25.0592 41.0987 27.0434 41.0987 27.0434H38.4568C38.2646 27.0434 38.1842 27.077 38.0705 27.1421C37.9842 27.1914 37.9136 27.2683 37.8802 27.3176C37.8077 27.428 37.7567 27.5503 37.7567 27.7397V29.9547C37.7567 30.1914 37.8508 30.3393 37.9489 30.434C38.043 30.5247 38.2019 30.6352 38.4686 30.6352C38.7608 30.6352 41.0968 30.6372 41.0968 30.6372V40.3374C41.0968 40.7714 41.4537 41.012 41.7499 41.012H44.4859C44.7468 41.012 44.9115 40.9035 45.0155 40.7812C45.1273 40.651 45.1802 40.511 45.1802 40.2802V30.6352H46.508L46.5119 40.3434C46.51 40.5445 46.6061 40.7319 46.7453 40.8542C46.8434 40.939 47.0101 41.012 47.1847 41.012H49.8893C50.1992 41.012 50.3659 40.8345 50.413 40.7773C50.4463 40.7359 50.5718 40.5879 50.5718 40.3177V30.6352H53.1333C53.3334 30.6352 53.5236 30.5346 53.6432 30.3788C53.704 30.2999 53.755 30.2032 53.7707 30.0987C53.7845 29.9941 53.7943 29.8344 53.7962 29.7377C53.7982 29.6529 53.8198 29.4517 53.8001 29.0158C53.7943 28.8699 53.7786 28.5997 53.7452 28.3432C53.7021 28.0237 53.6393 27.7279 53.6393 27.7279C53.6158 27.5484 53.5373 27.3472 53.402 27.2387Z" fill="#070D13"/>
</g>
<g id="good">
<path d="M58.0874 18.5108C57.7736 18.6075 57.2597 18.7376 56.634 18.7889C56.281 18.8185 56.1437 18.8165 55.7613 18.8165C54.6923 18.8165 53.5312 18.4635 52.6349 18.0098C51.9916 17.6844 51.4032 17.2761 50.6893 16.5621C50.0911 15.9644 49.5459 15.1183 49.187 14.2761C48.8084 13.3885 48.6201 12.4378 48.6123 11.4003C48.6044 10.28 48.8378 9.42395 49.1732 8.55609C49.5184 7.65865 50.0892 6.90124 50.6932 6.23457C51.2463 5.62313 52.1681 5.01365 52.8487 4.68426C53.8568 4.19708 54.9669 3.98406 55.9633 3.98406C56.3065 3.98406 56.4516 3.99392 56.7243 4.01759C57.0636 4.04915 57.2479 4.08859 57.5225 4.14185C57.8226 4.20102 57.9422 4.24442 58.1266 4.29767C58.411 4.38051 58.6012 4.46138 58.8601 4.56592V0.883438C58.8601 0.642805 58.8954 0.396254 59.0484 0.2286C59.1779 0.0865867 59.3328 0.00177332 59.5721 0.00177332H62.2002C62.2944 0.00177332 62.5297 -0.0100611 62.6376 0.0274146C62.7494 0.0648903 62.8259 0.104338 62.9122 0.183235C62.9769 0.242407 63.0357 0.323275 63.0789 0.43373C63.1279 0.556019 63.122 0.640832 63.122 0.769039V17.925C63.1201 18.0651 63.122 18.2209 63.1024 18.2978C63.071 18.4201 63.0102 18.5305 62.9298 18.6094C62.8475 18.6923 62.7788 18.7317 62.6964 18.7653C62.5631 18.8205 62.4454 18.8126 62.2218 18.8106H60.5213C60.3076 18.8106 59.9859 18.8106 59.9133 18.8106C59.9133 18.7613 59.9035 18.6785 59.9016 18.6627C59.8937 18.6035 59.8565 18.5029 59.8094 18.428C59.7564 18.3471 59.6701 18.2465 59.5485 18.1873C59.4642 18.1459 59.3426 18.1144 59.2563 18.1144C59.168 18.1163 59.0935 18.1223 59.0033 18.1617C58.7797 18.2623 58.5345 18.3727 58.0874 18.5108ZM52.682 11.4062C52.682 11.9033 52.7605 12.3668 52.9154 12.7987C53.0703 13.2307 53.292 13.6054 53.5803 13.921C53.8686 14.2366 54.2157 14.4871 54.6217 14.6705C55.0277 14.854 55.4769 14.9467 55.9692 14.9467C56.4536 14.9467 56.9106 14.8599 57.3401 14.6863C57.7677 14.5128 58.1423 14.2741 58.46 13.9703C58.7777 13.6666 59.0347 13.3076 59.2269 12.8934C59.4211 12.4792 59.5289 12.0354 59.5505 11.562V11.4042C59.5505 10.923 59.4603 10.4654 59.2779 10.0275C59.0955 9.5916 58.8444 9.20896 58.5208 8.87759C58.1992 8.54623 57.8187 8.28587 57.3833 8.09455C56.9478 7.90322 56.4752 7.80658 55.9672 7.80658C55.4749 7.80658 55.0258 7.90322 54.6198 8.09455C54.2138 8.28587 53.8666 8.5482 53.5783 8.87759C53.29 9.20896 53.0684 9.5916 52.9134 10.0275C52.7585 10.4654 52.682 10.9249 52.682 11.4062Z" fill="#A7213D"/>
<path d="M10.865 19.0907C10.863 18.9645 10.865 18.4378 10.865 18.2327C10.5767 18.3589 10.3884 18.4201 10.0824 18.5148C9.78233 18.6075 9.55678 18.6489 9.20571 18.712C8.85267 18.7751 8.29958 18.8146 7.85241 18.8146C7.03062 18.8146 5.79892 18.5641 4.91633 18.14C4.15927 17.7771 3.38259 17.2544 2.75497 16.6153C2.12147 15.9704 1.46247 14.9999 1.13689 14.1262C0.825045 13.2899 0.626953 12.4358 0.626953 11.3983C0.626953 10.3687 0.801509 9.54032 1.1467 8.6409C1.49189 7.74346 2.03125 6.95647 2.64906 6.29177C3.26687 5.62707 3.99452 5.09452 4.832 4.6961C5.65378 4.30359 6.56383 4.0452 7.51114 3.99786C7.92497 3.97617 8.21721 3.97222 8.52317 4.00181C8.57221 4.00575 8.7958 4.02548 8.88209 4.03534C8.96054 4.0452 9.02723 4.05309 9.19786 4.08071C9.30181 4.09846 9.65289 4.16749 9.77253 4.19905C9.88628 4.23061 10.1334 4.28584 10.306 4.3529C10.4629 4.41404 10.7218 4.5028 10.8591 4.56394C11.0121 4.63101 10.9689 4.61523 11.0238 4.6389C11.1337 4.68821 11.2945 4.69018 11.4043 4.66454C11.5161 4.63692 11.6024 4.58761 11.6573 4.54619C11.7534 4.47124 11.8103 4.39432 11.8456 4.32528C11.9005 4.21286 11.9241 4.13396 11.9241 3.98603C11.977 3.98603 14.3443 3.98406 14.4483 3.98406C14.6444 3.98406 14.817 4.05704 14.919 4.16157C15.0033 4.24836 15.1308 4.39629 15.1328 4.64087C15.1347 4.79472 15.1308 4.79472 15.1308 5.00774V16.9901C15.1308 17.996 15.17 18.7751 14.9484 19.5227C14.6934 20.3767 13.9462 21.5542 13.3323 22.1716C12.689 22.8185 11.9221 23.4399 10.9081 23.8698C10.0353 24.2426 9.03311 24.4714 7.84064 24.4714C7.44446 24.4714 6.81684 24.4103 6.33828 24.2978C5.88914 24.1913 5.6734 24.1184 5.21837 23.9408C4.77708 23.7692 4.3044 23.503 3.9043 23.2406C3.51204 22.9803 3.15508 22.6588 2.83735 22.357C2.74516 22.2623 2.62552 22.1578 2.53923 22.0335C2.45685 21.9132 2.41763 21.785 2.41763 21.6706C2.41763 21.4832 2.4647 21.3767 2.54707 21.2406L3.59441 19.7633C3.69051 19.6233 3.78662 19.5424 3.87488 19.495C3.96706 19.4457 4.07297 19.4181 4.17692 19.4181C4.26125 19.4181 4.38286 19.4359 4.49073 19.4911C4.58879 19.5404 4.65352 19.6213 4.76923 19.7061C4.95163 19.8402 5.14973 19.9724 5.34978 20.0749C5.59102 20.1972 5.86364 20.3215 6.11273 20.3964C6.3677 20.4734 6.60502 20.5306 6.85018 20.5621C7.10123 20.5956 7.36404 20.6095 7.5641 20.6055C7.88183 20.5976 8.25251 20.5641 8.61143 20.4635C8.95074 20.3688 9.29201 20.2524 9.60581 20.0769C9.93728 19.8915 10.1883 19.7199 10.4492 19.499C10.6571 19.3274 10.7591 19.213 10.865 19.0907ZM4.62214 11.4516C4.62214 11.9545 4.69666 12.424 4.84769 12.8559C4.99871 13.2879 5.21249 13.6626 5.49295 13.9782C5.77146 14.2938 6.10881 14.5423 6.50107 14.7218C6.89333 14.9033 7.32874 14.992 7.8073 14.992C8.27801 14.992 8.7193 14.9072 9.1351 14.7376C9.5509 14.568 9.91178 14.3333 10.2217 14.0335C10.5296 13.7337 10.7787 13.3786 10.965 12.9723C11.1533 12.566 11.2572 12.1261 11.2788 11.6528V11.28C11.2572 10.8224 11.1513 10.3865 10.965 9.97819C10.7767 9.56793 10.5296 9.20698 10.2217 8.89534C9.91374 8.5837 9.5509 8.33518 9.1351 8.15175C8.7193 7.96832 8.27801 7.87561 7.8073 7.87561C7.32874 7.87561 6.89333 7.97226 6.50107 8.16358C6.10881 8.35491 5.77146 8.61329 5.49295 8.93677C5.21445 9.26024 4.99871 9.63894 4.84769 10.0768C4.69666 10.5107 4.62214 10.9703 4.62214 11.4516Z" fill="#A7213D"/>
<path d="M16.4567 11.4003C16.4567 10.708 16.543 10.0689 16.7195 9.42987C16.896 8.79081 17.1372 8.21684 17.455 7.67048C17.7727 7.1261 18.1453 6.62905 18.5906 6.18132C19.0358 5.73358 19.5359 5.33713 20.0674 5.01957C20.6087 4.6961 21.2109 4.44166 21.815 4.26217C22.4426 4.07676 23.1192 3.98406 23.8076 3.98406C24.8236 3.98406 25.7944 4.1813 26.6888 4.56C27.5812 4.94067 28.3598 5.46928 29.0228 6.13398C29.6837 6.79868 30.2231 7.58172 30.6095 8.48114C30.9939 9.38056 31.2018 10.353 31.2018 11.3983C31.2018 12.0906 31.0919 12.8145 30.9154 13.4516C30.7389 14.0867 30.482 14.6449 30.1642 15.1932C29.8465 15.7416 29.4503 16.2307 29.0071 16.6785C28.5618 17.1262 28.0676 17.499 27.5224 17.8185C26.9771 18.138 26.3789 18.3866 25.7552 18.5601C25.1315 18.7337 24.4784 18.8165 23.7978 18.8165C23.1094 18.8165 22.4543 18.712 21.8228 18.5384C21.1913 18.3649 20.6166 18.1006 20.0714 17.781C19.5261 17.4615 19.0436 17.0729 18.6004 16.6252C18.1552 16.1775 17.7786 15.6824 17.4609 15.1341C17.1431 14.5857 16.9038 14.0236 16.7273 13.3885C16.5488 12.7534 16.4567 12.0926 16.4567 11.4003ZM20.5774 11.4259C20.5774 11.923 20.6539 12.3865 20.8068 12.8185C20.9598 13.2504 21.1775 13.6252 21.458 13.9408C21.7385 14.2563 22.0778 14.5068 22.4779 14.6903C22.878 14.8737 23.3291 14.9664 23.8292 14.9664C24.3156 14.9664 24.755 14.8737 25.1472 14.6903C25.4846 14.5325 25.9278 14.1932 26.1455 13.9408C26.4181 13.6252 26.628 13.2504 26.7731 12.8185C26.9183 12.3865 26.9908 11.921 26.9908 11.4259C26.9908 10.9447 26.9183 10.4871 26.7731 10.0492C26.628 9.6133 26.4181 9.23065 26.1455 8.89929C25.8729 8.56793 25.5395 8.30757 25.1472 8.11625C24.755 7.92492 24.3156 7.82827 23.8292 7.82827C23.3291 7.82827 22.878 7.92492 22.4779 8.11625C22.0778 8.30757 21.7385 8.5699 21.458 8.89929C21.1775 9.23065 20.9598 9.6133 20.8068 10.0492C20.6539 10.4851 20.5774 10.9447 20.5774 11.4259Z" fill="#A7213D"/>
<path d="M32.5394 11.4003C32.5394 10.708 32.6257 10.0689 32.8022 9.42987C32.9787 8.79081 33.22 8.21684 33.5377 7.67048C33.8554 7.1261 34.2281 6.62905 34.6733 6.18132C35.1185 5.73358 35.6186 5.33713 36.1501 5.01957C36.6915 4.6961 37.2936 4.44166 37.8977 4.26217C38.5253 4.07676 39.2019 3.98406 39.8904 3.98406C40.9063 3.98406 41.8772 4.1813 42.7715 4.56C43.6639 4.94067 44.4426 5.46928 45.1055 6.13398C45.7664 6.79868 46.3058 7.58172 46.6922 8.48114C47.0766 9.38056 47.2845 10.353 47.2845 11.3983C47.2845 12.0906 47.1747 12.8145 46.9981 13.4516C46.8216 14.0867 46.5647 14.6449 46.247 15.1932C45.9292 15.7416 45.533 16.2307 45.0898 16.6785C44.6446 17.1262 44.1503 17.499 43.6051 17.8185C43.0598 18.138 42.4616 18.3866 41.8379 18.5601C41.2142 18.7337 40.5611 18.8165 39.8806 18.8165C39.1921 18.8165 38.5371 18.712 37.9055 18.5384C37.274 18.3649 36.6993 18.1006 36.1541 17.781C35.6088 17.4615 35.1263 17.0729 34.6831 16.6252C34.2379 16.1775 33.8613 15.6824 33.5436 15.1341C33.2258 14.5857 32.9866 14.0236 32.81 13.3885C32.6316 12.7534 32.5394 12.0926 32.5394 11.4003ZM36.662 11.4259C36.662 11.923 36.7385 12.3865 36.8915 12.8185C37.0445 13.2504 37.2622 13.6252 37.5427 13.9408C37.8231 14.2563 38.1624 14.5068 38.5625 14.6903C38.9627 14.8737 39.4138 14.9664 39.9139 14.9664C40.4003 14.9664 40.8396 14.8737 41.2319 14.6903C41.5692 14.5325 42.0125 14.1932 42.2302 13.9408C42.5028 13.6252 42.7127 13.2504 42.8578 12.8185C43.003 12.3865 43.0755 11.921 43.0755 11.4259C43.0755 10.9447 43.003 10.4871 42.8578 10.0492C42.7127 9.6133 42.5028 9.23065 42.2302 8.89929C41.9576 8.56793 41.6242 8.30757 41.2319 8.11625C40.8396 7.92492 40.4003 7.82827 39.9139 7.82827C39.4138 7.82827 38.9627 7.92492 38.5625 8.11625C38.1624 8.30757 37.8231 8.5699 37.5427 8.89929C37.2622 9.23065 37.0445 9.6133 36.8915 10.0492C36.7385 10.4851 36.662 10.9447 36.662 11.4259Z" fill="#A7213D"/>
</g>
</g>
</g>
<defs>
<clipPath id="clip0_1_8156">
<rect width="107" height="45" fill="white"/>
</clipPath>
</defs>
</svg>
